<?xml version="1.0" encoding="utf-8"?><svg viewBox="0 0 70 70" xmlns="http://www.w3.org/2000/svg" xmlns:xlink="http://www.w3.org/1999/xlink"><style>:root>svg{display:none}:root>svg:target{display:block}</style><svg fill="none" viewBox="0 0 17 14" id="checked" xmlns="http://www.w3.org/2000/svg"><path d="M1.5 7.5L6 12 16 1" stroke="#fff" stroke-width="2"/></svg><svg fill="none" viewBox="0 0 21 22" id="db-icon" xmlns="http://www.w3.org/2000/svg"><path fill-rule="evenodd" clip-rule="evenodd" d="M18.313 5.109c0 .737.138 3.088-.158 3.57-1.174 1.908-6.577 2.375-8.68 2.374-1.993-.001-7.622-.521-8.586-2.471-.184-.373-.16-2.966-.084-3.494.353.34 1.111.779 1.715 1.021 3.824 1.536 10.397 1.51 14.04.008 1.192-.49 1.469-.876 1.753-1.009zM9.475 6.477c-1.735 0-3.623-.187-5.205-.607-1.034-.275-2.244-.696-2.98-1.363-1.502-1.361.81-2.439 1.96-2.828C6.996.412 13.297.334 16.883 2.122c.529.263 1.373.77 1.417 1.439.047.724-.873 1.292-1.37 1.543-2.109 1.065-5.042 1.373-7.456 1.373zM10.636 0H8.33c-.247.095-1.67.148-2.099.204-.652.087-1.3.204-1.929.354C2.818.91.552 1.733.066 3.26-.056 3.642.03 15.3.019 17.017c-.01 1.354.764 2.005 2.035 2.592l1.262.494c.154.044.3.085.462.133.836.246 3.134.708 4.026.633.207-.218.265-.239.155-.6-.267-.185-2.188-.365-2.773-.472-.853-.155-1.813-.424-2.555-.762-.706-.322-1.648-.803-1.817-1.503-.108-.446-.035-2.684-.028-3.299.135.066.245.185.384.29l.248.174c1.938 1.187 5.034 1.642 7.212 1.668.564.007.86.123 1.267-.167.036-.405-.03-.542-.42-.574-.853-.072-1.468-.01-2.738-.158-1.43-.167-3.369-.563-4.61-1.24a4.82 4.82 0 01-.599-.368c-.89-.648-.746-1.121-.746-2.212 0-.61-.042-1.39.015-1.978.63.388.685.592 1.691.997 3.472 1.396 8.3 1.39 11.925.671l2.09-.626c1.059-.394 1.243-.717 1.808-1.031 0 .36-.04 1.078.009 1.398.073.479.67.467.74.02l.009-5.546c-.008-1.845.379-2.826-1.622-3.99C14.816.031 11.089.162 10.636 0z" fill="#2C83F5"/><path fill-rule="evenodd" clip-rule="evenodd" d="M13.156 13.737c.556.292 1.021.727 1.862.312.732-.363.763-1.029.895-1.457.622-.087.336.13.558.628.121.272.373.535.595.67.291.177.684.264 1.011.213.473-.073.535-.266.89-.365l.215.242c-.097.262-.299.39-.39.767-.205.84.306 1.724 1.426 1.887 0 .45.023.386-.173.454-.008.003-.21.041-.247.05a1.505 1.505 0 00-1.087 1.741c.073.378.264.522.35.804l-.213.245c-.294-.089-.418-.265-.806-.315a1.532 1.532 0 00-.883.14c-.936.46-.609 1.364-1.167 1.206-.268-.076-.003-.878-.991-1.324-.897-.405-1.402.129-1.724.284-.122-.086-.174-.155-.29-.248.144-.35.647-.88.223-1.744-.263-.536-.608-.744-1.367-.87l-.007-.409c.6-.123 1.095-.336 1.34-.938.338-.826-.016-1.198-.303-1.71.108-.152.117-.169.283-.263zm2.298 7.986h1.323c.435-.475.156-.664.452-1.055.723-.954 1.306.526 1.926-.005.112-.095.653-.64.712-.743.251-.44-.225-.671-.366-1.043a.74.74 0 01.358-.952c.352-.16.9-.068 1.07-.378.088-.161.091-1.134.026-1.334-.127-.385-.681-.243-1.056-.45-.984-.54.217-1.491.162-1.857-.037-.245-.491-.62-.655-.787-.401-.41-.521-.32-.978-.002-1.292.9-1.381-.893-1.43-1.028-.142-.391-.768-.282-1.19-.278-1.17.011-.238 1.444-1.35 1.62-.88.141-.994-1.14-1.898-.21-.193.198-.69.508-.53.93.098.264.504.499.513.936.009.402-.314.696-.664.777-.495.113-.79.013-.808.608-.011.361-.134 1.088.226 1.253.384.176.855.053 1.114.338.715.785-.764 1.318-.083 2.014 1.222 1.248.89.627 1.723.249.458-.208.835.044.989.36.24.498-.018.573.414 1.037z" fill="#2C83F5"/><path fill-rule="evenodd" clip-rule="evenodd" d="M14.911 17.016c-.134-.672.312-1.252.866-1.362.676-.135 1.268.338 1.365.885.274 1.554-1.957 1.85-2.23.477zm-.758.06c.301 2.327 4.094 2.005 3.75-.594-.213-1.597-2.281-2.211-3.381-.877-.293.355-.443.898-.369 1.471z" fill="#2C83F5"/></svg><svg fill="none" viewBox="0 0 37 41" id="docx" xmlns="http://www.w3.org/2000/svg"><path d="M35.7 6.1L30.2.6c-.3-.4-.8-.6-1.3-.6H5.6c-1 0-1.8.8-1.8 1.8V20H2.5C1.1 20 0 21.1 0 22.5v11.3c0 1.4 1.1 2.5 2.5 2.5h28.2c1 0 1.8-.8 1.8-1.8v-8.8c0-1-.8-1.8-1.8-1.8H2.5c-.7 0-1.3-.6-1.3-1.3 0-.7.6-1.3 1.3-1.3h1.3v.7c0 .3.3.6.6.6s.6-.3.6-.6V2c0-.4.3-.7.7-.7h22.6V7c0 .7.5 1.2 1.2 1.2h5.7v30.1c0 .4-.3.7-.7.7H5.6c-.4 0-.7-.3-.7-.7 0-.3-.3-.6-.6-.6s-.6.3-.6.6c0 1 .8 1.8 1.8 1.8h28.8c1 0 1.8-.8 1.8-1.8V7.4c.2-.5 0-1-.4-1.3zM2.5 25h28.2c.4 0 .7.3.7.7v8.8c0 .4-.3.7-.7.7H2.5c-.7 0-1.3-.6-1.3-1.3v-9.2c.4.1.8.3 1.3.3zM29.4 6.8V1.4l5.5 5.5-5.5-.1c0 .1 0 .1 0 0z" fill="#2C83F5"/><path d="M13.2 20.6H27c.3 0 .6-.3.6-.6s-.3-.6-.6-.6H13.2c-.3 0-.6.3-.6.6s.2.6.6.6zM13.2 17.5H27c.3 0 .6-.3.6-.6s-.3-.6-.6-.6H13.2c-.3 0-.6.3-.6.6s.2.6.6.6zM21.9 14.3h5c.3 0 .6-.3.6-.6s-.3-.6-.6-.6h-5c-.3 0-.6.3-.6.6 0 .4.3.6.6.6zM21.9 11.2h5c.3 0 .6-.3.6-.6s-.2-.6-.6-.6h-5c-.3 0-.6.3-.6.6s.3.6.6.6zM20.9 33.2c.7 0 1.3-.2 1.8-.7l.3-.3c.2-.2.2-.6-.1-.8-.2-.2-.6-.2-.8.1 0 .1-.1.1-.2.2-.3.2-.6.4-1 .4-1.1 0-2-.9-2-2s.9-2 2-2c.4 0 .8.1 1.1.3.3.2.6.1.8-.2.2-.3.1-.6-.2-.8-.5-.4-1.1-.5-1.8-.5-1.8 0-3.2 1.4-3.2 3.2.1 1.7 1.5 3.1 3.3 3.1zM24 33.1c.1.1.2.1.3.1.2 0 .4-.1.5-.2l1.4-2 1.4 2c.1.2.3.2.5.2.1 0 .2 0 .3-.1.3-.2.3-.6.1-.8l-1.7-2.4 1.4-2c.2-.3.1-.6-.1-.8-.3-.2-.6-.1-.8.1l-1.2 1.7-1.2-1.7c-.2-.3-.6-.3-.8-.1-.3.2-.3.6-.1.8l1.4 2-1.7 2.4c0 .3.1.6.3.8zM13.5 33.2c1.8 0 3.2-1.4 3.2-3.2 0-1.8-1.4-3.2-3.2-3.2-1.8 0-3.2 1.4-3.2 3.2 0 1.8 1.4 3.2 3.2 3.2zm0-5.2c1.1 0 2 .9 2 2s-.9 2-2 2-2-.9-2-2c-.1-1.1.8-2 2-2zM13.8 14.3h4.4c.7 0 1.2-.5 1.2-1.2v-1.9c0-.7-.5-1.2-1.2-1.2h-4.4c-.7 0-1.2.5-1.2 1.2v1.9c0 .7.5 1.2 1.2 1.2zm-.1-3.1s.1 0 0 0h4.4v1.9h-4.3v-1.9h-.1zM4.4 32.6c0 .2.1.3.2.4.1.1.3.2.4.2h1.5c1.5 0 2.6-1.3 2.6-3.1C9.1 28.2 8 27 6.5 27H5c-.2 0-.3.1-.4.2-.1.1-.2.3-.2.4v5zm2-4.5c1.1 0 1.5 1 1.5 1.9 0 1.3-.7 1.9-1.4 1.9h-.9V30v-1.9h.8z" fill="#2C83F5"/></svg><svg fill="none" viewBox="0 0 37 41" id="pdf" xmlns="http://www.w3.org/2000/svg"><path d="M35.7 6.1L30.2.6c-.4-.4-.8-.6-1.3-.6H5.6c-1 0-1.8.8-1.8 1.8V20H2.5C1.1 20 0 21.1 0 22.5v11.3c0 1.4 1.1 2.5 2.5 2.5h19.4c1 0 1.8-.8 1.8-1.8v-8.8c0-1-.8-1.8-1.8-1.8H2.5c-.7 0-1.3-.6-1.3-1.3 0-.7.6-1.3 1.3-1.3h1.3v.7c0 .3.3.6.6.6s.6-.3.6-.6V2c0-.4.3-.7.7-.7h22.6V7c0 .7.5 1.2 1.2 1.2h5.7v30.1c0 .4-.3.7-.7.7H5.6c-.4 0-.7-.3-.7-.7 0-.3-.3-.6-.6-.6s-.6.3-.6.6c0 1 .8 1.8 1.8 1.8h28.8c1 0 1.8-.8 1.8-1.8V7.4c.1-.5 0-1-.4-1.3zM2.5 25h19.4c.4 0 .7.3.7.7v8.8c0 .4-.3.7-.7.7H2.5c-.7 0-1.3-.6-1.3-1.3v-9.2c.3.1.8.3 1.3.3zM29.4 6.8V1.4l5.5 5.5-5.5-.1c0 .1 0 .1 0 0z" fill="#2C83F5"/><path d="M16.6 33.1c.3 0 .6-.3.6-.6v-1.9h1.3c.3 0 .6-.3.6-.6s-.3-.6-.6-.6h-1.3v-1.3h1.4c.3 0 .6-.3.6-.6s-.3-.6-.6-.6h-2c-.3 0-.6.3-.6.6v5c0 .3.3.6.6.6zM10.4 32.9c.1.1.3.2.4.2h1.4c1.4 0 2.5-1.3 2.5-3 0-1.8-1-3-2.5-3h-1.4c-.2 0-.3.1-.4.2-.1.1-.2.3-.2.4V32.6c.1 0 .1.2.2.3zm1.8-4.7c1 0 1.4 1 1.4 1.8 0 1.3-.7 1.8-1.3 1.8h-.8v-3.7h.7v.1zM5.6 33.1c.3 0 .6-.3.6-.6v-1.6H7c1.1 0 2-.9 2-2s-.9-2-2-2H5.6c-.2 0-.3.1-.4.2-.1.1-.2.3-.2.4v5c0 .3.3.6.6.6zm1.4-5c.5 0 .9.4.9.8s-.4.8-.9.8h-.8V28H7v.1zM16.6 17c-1.4.5-2.9 1.1-3.7 1.9-.7.7-.8 1.5-.3 2.1.3.5.7.7 1.2.7.2 0 .4 0 .6-.1.7-.3 1.4-1 2.3-2.3.3-.4.5-.9.8-1.4.1 0 .2-.1.3-.1 1.7-.5 3.5-.8 5.2-.9 1 1 2 1.7 2.9 1.9 1 .2 1.7-.2 2.1-1.2.2-.6 0-1.1-.6-1.5-.6-.3-1.6-.5-3-.5h-.9c-.6-.7-1.3-1.4-1.9-2.3-.5-.7-.9-1.3-1.3-2 0-.1.1-.3.1-.4.4-1.5.5-2.6.4-3.4-.2-1.1-.9-1.2-1.2-1.3-1-.1-1.7.5-1.8 1.4-.1.7.1 1.7.7 2.9.1.3.3.6.5.9-.1.2-.1.4-.2.6-.8 1.9-1.5 3.6-2.2 5zm-2.9 3.6s-.1 0-.2-.2-.1-.3 0-.4c.2-.4.9-.9 2.2-1.4-1 1.4-1.6 1.9-2 2zm13-3.3c-.2.5-.4.5-.7.5-.4-.1-.9-.4-1.5-.9 1.6 0 2.1.3 2.2.4zm-7.9-9.4c0-.2.1-.4.5-.4h.1c.1.2.2.9-.1 2.3-.4-.7-.6-1.4-.5-1.9zm.8 5c.3.4.5.8.8 1.2.4.6.9 1.2 1.4 1.7l-1.8.3c-.4.1-1.1.2-1.9.4.2-.4.4-.8.5-1.2.4-.7.7-1.6 1-2.4z" fill="#2C83F5"/></svg><svg fill="none" viewBox="0 0 20 10" id="select-arrow" xmlns="http://www.w3.org/2000/svg"><path fill-rule="evenodd" clip-rule="evenodd" d="M0 1.207V.448h.759l9.103 8.345L18.965.448h.76v.759L10.62 9.552H9.103L0 1.207z" fill="#D1D1D1"/></svg><svg fill="none" viewBox="0 0 70 70" id="stage-1" xmlns="http://www.w3.org/2000/svg"><circle cx="35" cy="35" r="35" fill="#3497A4"/><path d="M25.222 25.016c.014-.285.203-.547.636-.759.311-.152 1.697.162 2.592.66.245.136.46.286.619.446.191.193.305.407.305.636v.002c-.002.276-.161.534-.538.751-.32.185-1.755-.128-2.677-.63a2.81 2.81 0 01-.637-.453c-.198-.199-.312-.418-.3-.653zm9.17 4.395c-1.563-.592-3.553-1.346-4.098-1.793l-.103-.085-.006-.136c-.04-.944.344-1.275.91-1.3.505-.02 1.133.267 1.684.52.178.081.347.159.505.221v.001l6.077 2.417.633.234c1.662.608 2.056.753 1.9 1.989l-.022.174-.16.067c-.991.411-3.624-.757-5.138-1.428-.28-.125-.52-.231-.692-.303-.362-.15-.895-.352-1.49-.578zm12.902 2.141l-26.04-10.261 10.361 26.004c.706-1.053 1.442-2.355 2.155-3.617.356-.63.707-1.25 1.034-1.806.951-1.617 1.457-2.456 2.24-2.503.748-.044 1.564.704 3.124 2.262l6.939 6.973c.173.162.334.247.481.274.208.038.409-.037.588-.166.206-.147.387-.362.526-.569.145-.215.241-.384.272-.45-.345-.616-2.406-2.606-3.495-3.657-.23-.222-.418-.403-.541-.525-.528-.523-1.015-1.001-1.462-1.44-2.496-2.454-3.762-3.698-4.025-4.62-.312-1.096.57-1.604 2.36-2.635.16-.093.335-.192.725-.42.29-.17.688-.395 1.128-.642 1.219-.687 2.774-1.564 3.63-2.201zM39.21 43.436c-.62-.651-1.366-1.436-1.909-1.86-.57.747-2.305 3.764-3.272 5.449l-.53.918c-.065.111-.127.229-.19.346-.397.745-.786 1.474-1.928 1.4-1.11-.073-1.417-.93-1.73-1.808h-.002c-.05-.14-.1-.281-.137-.376l-8.944-22.623a38.237 38.237 0 00-.405-.956c-.725-1.667-1.544-3.555-.637-4.455.8-.794 1.751-.402 2.608-.05.103.042.203.084.338.135l.004.002 22.548 8.979c.34.135.71.268 1.084.403 1.65.594 3.4 1.224 3.522 2.424.117 1.143-.7 1.585-1.477 2.004-.117.063-.233.125-.338.186l-6.26 3.68c.21.283.52.578.782.828.151.145.288.276.398.397.258.286.52.53.781.774.203.189.406.378.617.598.125.129.28.295.43.456.322.345.622.666 1.009 1.004.266.233.469.455.676.683.204.223.413.451.712.712.63.55 1.384 1.316 2.072 2.016.293.298.574.584.827.835.935.925 1.196 1.698 1.073 2.402-.12.69-.608 1.269-1.186 1.852-.765.771-1.394 1.186-2.06 1.208-.669.023-1.319-.352-2.118-1.158l-5.71-5.731c-.188-.19-.409-.422-.648-.674z" fill="#fff"/></svg><svg fill="none" viewBox="0 0 70 70" id="stage-2" xmlns="http://www.w3.org/2000/svg"><circle cx="35" cy="35" r="35" fill="#3497A4"/><path fill-rule="evenodd" clip-rule="evenodd" d="M23.711 21.223c.776.235 2.008 1.345 2.782 1.845 1.139.736 1.917.005 3.002-.505 1.285-.605 2.59-.427 2.89-1.74l.465-2.896c.263-.945-.29-.714 4.065-.674.808 5.67.516 3.938 3.458 5.258 3.116 1.397 1.536 1.37 5.738-1.364.552.306 2.427 2.183 2.753 2.741-2.486 4.131-2.889 2.417-1.369 5.732.587 1.28.428 2.49 1.649 2.804l3.49.793c.017.022.9 3.338-.48 3.828l-1.357.245c-.476.076-1.365.175-1.812.312-1.065.325-.946 1.598-1.49 2.787-.565 1.238-1.337 1.866-.425 3.161.57.81 1.21 1.627 1.846 2.62l-2.806 2.687c-.908-.563-2.224-1.724-2.99-2.087-1.05-.498-2.444.65-3.508 1.022-2.185.76-1.848.16-2.279 2.716-.429 2.547.16 2.267-2.424 2.275-2.508.008-1.864-.014-2.292-2.59-.393-2.369-.295-1.711-2.354-2.455-1.371-.496-2.28-1.569-3.533-.748-.818.535-1.986 1.587-2.87 1.965l-2.633-2.667c.25-.703 1.319-2.02 1.775-2.67.847-1.205.199-1.818-.378-3-.533-1.093-.586-2.569-1.539-2.9-.91-.318-2.757-.476-3.843-.675l.038-3.91c5.523-.943 3.849-.24 5.282-3.646.626-1.489 1.374-1.629.246-3.098-.483-.628-1.5-1.928-1.74-2.524l2.643-2.642zM15 32.682v4.612c1.338 2.384.904 1.64 4.882 2.491l1.155 2.85c-.596.502-2.294 2.58-2.02 4.09.239 1.319 1.838 2.342 2.9 3.49 1.94 2.097 3.645.186 5.363-.913.443-.283.325-.287.885-.033.435.197.658.31 1.14.488 1.887.697.842.87 1.564 3.408.35 1.23.872 1.235 1.766 1.834h4.721c3.105-1.777 1.29-3.353 2.374-4.734l.215-.167c.15-.09.196-.122.36-.196 2.596-1.176 2.019-.955 4.039.467 2.358 1.66 3.593.09 4.83-1.195 1.396-1.449 2.829-2.5 1.278-4.736-1.725-2.487-1.588-1.518-.603-4.008.587-1.485 1.435-.779 3.32-1.301 1.144-.318 1.373-.97 1.831-1.779v-4.715c-.587-.89-.605-1.438-1.83-1.768-1.813-.488-2.71.142-3.317-1.297l-.807-1.948c.687-1.233 2.4-2.621 1.994-4.385-.236-1.028-2.362-2.76-2.996-3.414-2.817-2.902-4.446 1.759-6.216.907-3.42-1.646-1.736-.12-2.767-3.837-.326-1.174-.904-1.334-1.742-1.893h-4.61c-2.427 1.364-1.682 1.17-2.496 4.88l-2.837 1.157c-.421-.496-2.412-1.935-3.198-2.043-1.755-.241-2.46 1.096-3.279 1.905-.768.759-2.226 1.623-2.029 3.34.11.954 1.509 2.632 2.041 3.388-1.026 2.558-.774 2.687-1.743 2.92-2.477.597-2.56-.233-4.168 2.136v-.001z" fill="#fff"/><path fill-rule="evenodd" clip-rule="evenodd" d="M28.747 36.332c-1.754-8.475 10.934-10.7 12.51-2.62 1.643 8.422-10.85 10.635-12.51 2.62zm5.08-9.856c-4.33.687-8.164 4.544-7.355 9.75.663 4.271 4.647 8.117 9.753 7.299 4.301-.69 8.104-4.6 7.305-9.753-.664-4.284-4.61-8.103-9.703-7.296z" fill="#fff"/></svg><svg fill="none" viewBox="0 0 70 70" id="stage-3" xmlns="http://www.w3.org/2000/svg"><circle cx="35" cy="35" r="35" fill="#3497A4"/><path fill-rule="evenodd" clip-rule="evenodd" d="M28.573 25.368c1.29-1.985 3.16-3.294 5.784-3.316 2.045-.017 12.062 2.608 15.175 3.156l4.269 15.244c-.959.031-1.536-.193-2.113-.618-5.313-3.908-10.787-8.185-16.132-12.199-.961-.72-2.46-2.122-3.258-1.986-.661.113-1.082.918-.669 1.583.159.255.988.77 1.423 1.17-.486.994-1.792 2.38-3.025 2.93-1.993.89-3.343.337-4.86-.313l3.405-5.65zm6.199 4.371c.35.113 5.677 4.212 6.089 4.527.882.677 8.251 6.144 9.066 6.886 1.051.957.41 2.982-1.284 2.85-.71-.056-1.236-.616-1.698-.95-.52-.375-.998-.755-1.517-1.139-.468-.346-5.818-4.479-6.153-4.601-.856-.314-1.596.343-1.44 1.176.102.546.952 1.014 1.36 1.337l6.06 4.578c.517.39 1.092.74 1.27 1.377.422 1.508-1.272 2.759-2.76 1.693-.561-.402-.976-.744-1.505-1.155-1.003-.778-2.002-1.487-3.033-2.286-1.061-.822-2.018-1.565-3.08-2.34-.407-.298-1.106-1.012-1.786-.922-.693.092-1.246.983-.645 1.679l3.013 2.31c.575.438 4.198 3.115 4.485 3.486a1.602 1.602 0 01-.064 2.027c-1.172 1.37-2.624.078-3.46-.599l-6.058-4.58c-.413-.314-1.02-.968-1.744-.772-.725.195-1.005 1.184-.404 1.76l3.021 2.294c1.01.763 2.58 1.665 2.72 2.631.198 1.39-1.317 2.63-2.92 1.397a163.013 163.013 0 00-3.032-2.286c-1.04-.764-1.985-1.504-3.027-2.29-.995-.752-2.013-1.514-3.026-2.291l-6.146-4.578L21.376 25.5l4.927-.575-2.692 4.49c-.787 1.309-2.017 2.425 1.42 3.858a7.49 7.49 0 005.956-.095c2.441-1.092 2.657-2.38 3.785-3.439zm-19.428-7.1c.846.003 3.3.86 4.296 1.053-.178 1.136-4.885 17.595-5.021 17.79l-4.26-1.181 4.986-17.661zm36.009 1.053c1.018-.194 3.425-1.049 4.314-1.06l4.941 17.716-4.239 1.114c-.415-.7-1.025-3.405-1.309-4.42l-2.488-8.862c-.366-1.267-1.042-3.238-1.22-4.488zm-29.188-.396c-.21-.289-.077-.774-.545-1.122-.322-.238-3.178-.928-3.67-1.056-2.284-.592-3.975-1.5-4.425.058-.93 3.222-1.805 6.457-2.71 9.665-.913 3.238-1.89 6.48-2.747 9.735-.423 1.611 1.16 1.62 3.797 2.318.856.226 1.68.449 2.515.674 1.44.39 1.41.332 2.101-.46.925.58 1.697 1.271 2.6 1.93 1.443 1.05 11.939 9.132 12.674 9.524 1.933 1.032 4.77.26 5.536-2.51 1.205.68 2.21 1.311 4.03.606 1.739-.673 1.95-1.958 2.338-2.856 1.722.185 2.421.247 3.653-.677.96-.72 1.224-1.58 1.436-3.032 2.348-.095 3.53-1.467 3.873-3.584l1.798-.02c.153 1.003.563 1.511 1.703 1.215l5.03-1.353c.875-.24 1.87-.268 1.848-1.33-.01-.447-2.375-8.638-2.71-9.784-.944-3.22-1.882-6.573-2.76-9.82-.277-1.021-.673-1.338-1.813-1.024l-5.023 1.354c-.75.194-1.261.179-1.598.762l-.27.428a607.963 607.963 0 01-6.722-1.485c-4.886-1.118-8.938-2.8-13.206.405-1.357 1.02-.152.705-3.094 1.036-1.206.136-2.42.272-3.64.403z" fill="#fff"/></svg><svg fill="none" viewBox="0 0 40 40" id="telegram-icon" xmlns="http://www.w3.org/2000/svg"><path fill="#27A6E5" d="M0 0h40v40H0z"/><path d="M28 12.602l-3.005 15.69s-.42 1.088-1.576.566l-6.934-5.505-.033-.017c.937-.87 8.2-7.633 8.518-7.94.491-.475.186-.757-.384-.399l-10.73 7.056-4.138-1.442s-.652-.24-.714-.762c-.064-.523.735-.805.735-.805l16.874-6.855S28 11.558 28 12.602z" fill="#FEFEFE"/></svg><svg fill="none" viewBox="0 0 40 40" id="vk-icon" xmlns="http://www.w3.org/2000/svg"><path fill="#07F" d="M0 0h40v40H0z"/><path d="M20.983 27C13.466 27 9.179 21.745 9 13h3.765c.124 6.418 2.9 9.137 5.098 9.698V13h3.546v5.535c2.17-.238 4.452-2.76 5.221-5.535h3.546a10.789 10.789 0 01-1.698 4.003 10.558 10.558 0 01-3.126 2.976 10.895 10.895 0 013.563 2.893A11.153 11.153 0 0131 27h-3.903a6.94 6.94 0 00-2.104-3.377 6.726 6.726 0 00-3.584-1.626V27h-.426z" fill="#fff"/></svg><svg fill="none" viewBox="0 0 37 41" id="xlsx" xmlns="http://www.w3.org/2000/svg"><path d="M35.8 6.1L30.3.6C29.9.2 29.5 0 29 0H5.7c-1 0-1.8.8-1.8 1.8V20H2.5C1.1 20 0 21.1 0 22.5v11.3c0 1.4 1.1 2.5 2.5 2.5h24.4c1 0 1.8-.8 1.8-1.8v-8.8c0-1-.8-1.8-1.8-1.8H2.5c-.7 0-1.3-.6-1.3-1.3 0-.7.6-1.3 1.3-1.3h1.3v.7c0 .3.3.6.6.6s.6-.3.6-.6V2c0-.4.3-.7.7-.7h22.6V7c0 .7.5 1.2 1.2 1.2h5.7v30.1c0 .4-.3.7-.7.7H5.7c-.4 0-.7-.3-.7-.7 0-.3-.3-.6-.6-.6s-.6.3-.6.6c0 1 .8 1.8 1.8 1.8h28.8c1 0 1.8-.8 1.8-1.8V7.4c.1-.5-.1-1-.4-1.3zM2.5 25h24.4c.4 0 .7.3.7.7v8.8c0 .4-.3.7-.7.7H2.5c-.7 0-1.3-.6-1.3-1.3v-9.2c.4.1.9.3 1.3.3zM29.4 6.8V1.4l5.5 5.5-5.5-.1c0 .1.1.1 0 0z" fill="#2C83F5"/><path d="M11.3 33.1H13.1c.3 0 .6-.3.6-.6s-.3-.6-.6-.6h-1.2v-4.5c0-.3-.3-.6-.6-.6s-.6.3-.6.6v5.1c.1.3.3.6.6.6zM17.3 33.1c1 0 1.9-.7 2.1-1.6.1-.7-.2-1.6-1.4-2-.6-.2-1.2-.5-1.4-.6-.2-.1-.2-.3-.1-.4 0-.1.1-.3.4-.4.7-.2 1.4.3 1.4.3.2.2.6.2.8-.1.2-.2.2-.6-.1-.8 0 0-1.2-1-2.5-.6-.7.2-1.2.7-1.3 1.4-.1.6.2 1.2.7 1.5h.1s.7.3 1.5.6c.2.1.8.3.7.7-.1.3-.4.6-.9.6s-1-.2-1.3-.6c-.2-.2-.6-.3-.8 0-.2.2-.3.6 0 .8.4.9 1.2 1.2 2.1 1.2zM4.7 33c.1.1.2.1.3.1.2 0 .4-.1.5-.2l1.4-2 1.4 2c.1.2.3.2.5.2.1 0 .2 0 .3-.1.3-.2.3-.6.1-.8l-1.7-2.4 1.4-2c.2-.3.1-.6-.1-.8-.3-.2-.6-.1-.8.1l-1.2 1.7-1.2-1.7c0-.2-.4-.3-.6-.1-.3.2-.3.6-.1.8l1.4 2-1.7 2.4c-.2.3-.2.6.1.8zM20.8 33c.1.1.2.1.3.1.2 0 .4-.1.5-.2l1.4-2 1.4 2c.1.2.3.2.5.2.1 0 .2 0 .3-.1.3-.2.3-.6.1-.8l-1.7-2.4 1.4-2c.2-.3.1-.6-.1-.8-.3-.2-.6-.1-.8.1l-1.2 1.7-1.2-1.7c-.2-.3-.6-.3-.8-.1-.3.2-.3.6-.1.8l1.4 2-1.7 2.4c0 .3.1.6.3.8zM28.2 11.2c0-.7-.5-1.2-1.2-1.2H13.2c-.7 0-1.2.5-1.2 1.2v8.1c0 .7.5 1.2 1.2 1.2H27c.7 0 1.2-.5 1.2-1.2v-8.1zm-10 5.1v-2H22v2h-3.8zm3.8 1.2v2h-3.8v-2H22zm-8.8-3.2H17v2h-3.8v-2zm5-1.1v-2H22v2h-3.8zm5 1.1H27v2h-3.8v-2zm3.8-3.1v1.9h-3.8v-2l3.8.1zm-13.8 0H17v2h-3.8v-2zm0 8.2v-1.9H17v2l-3.8-.1zm13.8 0h-3.8v-2H27v2z" fill="#2C83F5"/></svg></svg>