<svg width="21" height="22" viewBox="0 0 21 22" fill="none" xmlns="http://www.w3.org/2000/svg">
<path fill-rule="evenodd" clip-rule="evenodd" d="M18.3131 5.10853C18.3131 5.84599 18.4513 8.19721 18.1547 8.67915C16.9812 10.5867 11.578 11.0539 9.4748 11.0527C7.48229 11.0517 1.85287 10.5316 0.888983 8.58161C0.704935 8.20932 0.729638 5.61566 0.804819 5.08773C1.15827 5.4278 1.91643 5.86669 2.52032 6.10932C6.34374 7.64507 12.917 7.61822 16.5599 6.11723C17.752 5.62611 18.029 5.24141 18.313 5.10843L18.3131 5.10853ZM9.4748 6.47693C7.73977 6.47693 5.85213 6.29044 4.26961 5.87001C3.23581 5.59535 2.02578 5.17385 1.29028 4.50747C-0.212473 3.1459 2.09921 2.06817 3.24948 1.67908C6.99684 0.411545 13.2977 0.333727 16.884 2.12178C17.4126 2.3854 18.2572 2.89146 18.3006 3.56067C18.3476 4.28475 17.4281 4.8534 16.9314 5.10404C14.8224 6.16858 11.8895 6.47683 9.4748 6.47683V6.47693ZM10.6364 0H8.32882C8.08238 0.0950019 6.65842 0.147922 6.23028 0.204454C5.57845 0.290571 4.93052 0.408421 4.30105 0.557905C2.81822 0.90989 0.552229 1.73308 0.065991 3.26043C-0.0555685 3.6421 0.0302554 15.2988 0.0189294 17.0165C0.00994667 18.3711 0.783143 19.0216 2.054 19.6094L3.31617 20.1035C3.46956 20.1469 3.61524 20.1885 3.77771 20.2362C4.61378 20.4819 6.91179 20.9436 7.80431 20.8691C8.0113 20.6505 8.06851 20.63 7.95935 20.2686C7.69192 20.0838 5.77138 19.9041 5.18584 19.7972C4.33288 19.6415 3.37339 19.3731 2.63095 19.0347C1.92512 18.7129 0.982716 18.2315 0.813802 17.532C0.706107 17.0862 0.779043 14.8476 0.785877 14.2334C0.920813 14.2988 1.03144 14.4179 1.17047 14.5239L1.41808 14.6974C3.35552 15.8843 6.45192 16.3391 8.63023 16.3654C9.19389 16.3723 9.48993 16.4882 9.89737 16.1975C9.93331 15.7931 9.86633 15.6561 9.47763 15.6236C8.62437 15.5521 8.00886 15.6139 6.73888 15.4658C5.30936 15.2991 3.36997 14.9033 2.1285 14.2253C1.88421 14.0918 1.73687 14.0087 1.53037 13.8584C0.639518 13.2097 0.783827 12.7366 0.783827 11.6459C0.783827 11.0364 0.741745 10.2563 0.798863 9.66774C1.42834 10.0557 1.48409 10.2603 2.49015 10.6648C5.96236 12.0608 10.7899 12.0553 14.4154 11.3365L16.5046 10.7099C17.5638 10.3159 17.7476 9.99288 18.3132 9.67897C18.3132 10.0396 18.2725 10.7573 18.3217 11.077C18.3954 11.5558 18.9916 11.5442 19.0619 11.0976L19.071 5.55141C19.0633 3.70644 19.4498 2.72479 17.4486 1.56133C14.8165 0.031049 11.089 0.162177 10.6365 0H10.6364Z" fill="#2C83F5"/>
<path fill-rule="evenodd" clip-rule="evenodd" d="M13.1557 13.7373C13.7123 14.0289 14.177 14.4644 15.0178 14.0485C15.75 13.6863 15.7812 13.02 15.9127 12.5924C16.5345 12.5049 16.2492 12.7227 16.4707 13.2198C16.5921 13.4922 16.8445 13.7548 17.0664 13.89C17.3573 14.0673 17.7502 14.1537 18.0771 14.1031C18.5497 14.0298 18.6116 13.8374 18.9675 13.7376L19.1824 13.9801C19.085 14.2425 18.8833 14.3693 18.7915 14.7471C18.5872 15.5869 19.0976 16.4706 20.2177 16.6337C20.2177 17.0848 20.2411 17.0199 20.0447 17.0884C20.0375 17.091 19.8341 17.1293 19.7985 17.1386C19.0436 17.3352 18.5613 18.0971 18.7114 18.8794C18.7838 19.2573 18.9754 19.401 19.0618 19.6827L18.8483 19.9279C18.5536 19.8393 18.4298 19.6625 18.0416 19.613C17.7172 19.5716 17.419 19.6242 17.159 19.7522C16.2225 20.2134 16.55 21.1166 15.9918 20.9587C15.7236 20.8829 15.9893 20.0811 15.0009 19.6348C14.1038 19.2297 13.5988 19.7639 13.2765 19.9185C13.1545 19.8331 13.1032 19.7636 12.9878 19.6714C13.1308 19.3212 13.6343 18.791 13.2102 17.9271C12.9468 17.3909 12.6019 17.1826 11.8433 17.0573L11.8358 16.6482C12.4352 16.5251 12.9307 16.3118 13.1765 15.7103C13.514 14.8843 13.16 14.5117 12.8732 13.9998C12.9808 13.8476 12.9904 13.8312 13.1557 13.7372V13.7373ZM15.454 21.7227H16.7769C17.2119 21.2478 16.9333 21.0589 17.2289 20.6684C17.9518 19.7138 18.5352 21.1936 19.1553 20.6635C19.267 20.5679 19.8082 20.0231 19.8671 19.9196C20.118 19.4793 19.6421 19.2486 19.5007 18.8766C19.3359 18.4429 19.5642 18.0598 19.8594 17.9252C20.2113 17.7648 20.7593 17.8574 20.929 17.547C21.0173 17.3857 21.0202 16.4128 20.9545 16.2132C20.8278 15.8281 20.2739 15.9698 19.8985 15.7636C18.9154 15.2235 20.1163 14.2716 20.0613 13.906C20.0244 13.6607 19.57 13.2861 19.4062 13.1189C19.0048 12.7091 18.885 12.7997 18.4282 13.1174C17.1357 14.0164 17.0467 12.2244 16.9975 12.0887C16.8561 11.6979 16.2297 11.807 15.8078 11.811C14.6378 11.8223 15.5705 13.2546 14.4587 13.4319C13.5781 13.5723 13.4645 12.2907 12.5596 13.2216C12.3674 13.4192 11.8708 13.7286 12.0291 14.1511C12.128 14.415 12.5338 14.6498 12.5433 15.0869C12.552 15.4894 12.2294 15.7831 11.8792 15.8637C11.3845 15.9774 11.089 15.8772 11.0709 16.4717C11.0599 16.8335 10.9367 17.5604 11.2966 17.7252C11.681 17.9011 12.1516 17.7784 12.4105 18.0627C13.1264 18.8482 11.6465 19.381 12.3277 20.0766C13.55 21.3246 13.2175 20.7039 14.0508 20.3257C14.5093 20.1177 14.8861 20.3704 15.0395 20.6865C15.2807 21.1837 15.0222 21.2592 15.4539 21.7226L15.454 21.7227Z" fill="#2C83F5"/>
<path fill-rule="evenodd" clip-rule="evenodd" d="M14.9111 17.0162C14.7771 16.3441 15.223 15.7642 15.7773 15.6536C16.4527 15.5187 17.0453 15.9925 17.1418 16.5389C17.416 18.0929 15.1848 18.3886 14.9112 17.0162H14.9111ZM14.1534 17.0765C14.4545 19.4031 18.2469 19.0815 17.9021 16.4822C17.6901 14.8848 15.6219 14.2707 14.5215 15.6053C14.2293 15.9597 14.079 16.5028 14.1534 17.0765V17.0765Z" fill="#2C83F5"/>
</svg>
