<svg width="37" height="41" viewBox="0 0 37 41" fill="none" xmlns="http://www.w3.org/2000/svg">
<path d="M35.7 6.1L30.2 0.6C29.9 0.2 29.4 0 28.9 0H5.6C4.6 0 3.8 0.8 3.8 1.8V20H2.5C1.1 20 0 21.1 0 22.5V33.8C0 35.2 1.1 36.3 2.5 36.3H30.7C31.7 36.3 32.5 35.5 32.5 34.5V25.7C32.5 24.7 31.7 23.9 30.7 23.9H2.5C1.8 23.9 1.2 23.3 1.2 22.6C1.2 21.9 1.8 21.3 2.5 21.3H3.8V22C3.8 22.3 4.1 22.6 4.4 22.6C4.7 22.6 5 22.3 5 22V2C5 1.6 5.3 1.3 5.7 1.3H28.3V7C28.3 7.7 28.8 8.2 29.5 8.2H35.2V38.3C35.2 38.7 34.9 39 34.5 39H5.6C5.2 39 4.9 38.7 4.9 38.3C4.9 38 4.6 37.7 4.3 37.7C4 37.7 3.7 38 3.7 38.3C3.7 39.3 4.5 40.1 5.5 40.1H34.3C35.3 40.1 36.1 39.3 36.1 38.3V7.4C36.3 6.9 36.1 6.4 35.7 6.1ZM2.5 25H30.7C31.1 25 31.4 25.3 31.4 25.7V34.5C31.4 34.9 31.1 35.2 30.7 35.2H2.5C1.8 35.2 1.2 34.6 1.2 33.9V24.7C1.6 24.8 2 25 2.5 25ZM29.4 6.8V1.4L34.9 6.9L29.4 6.8C29.4 6.9 29.4 6.9 29.4 6.8Z" fill="#2C83F5"/>
<path d="M13.2001 20.6H27.0001C27.3001 20.6 27.6001 20.3 27.6001 20C27.6001 19.7 27.3001 19.4 27.0001 19.4H13.2001C12.9001 19.4 12.6001 19.7 12.6001 20C12.6001 20.3 12.8001 20.6 13.2001 20.6Z" fill="#2C83F5"/>
<path d="M13.2001 17.5H27.0001C27.3001 17.5 27.6001 17.2 27.6001 16.9C27.6001 16.6 27.3001 16.3 27.0001 16.3H13.2001C12.9001 16.3 12.6001 16.6 12.6001 16.9C12.6001 17.2 12.8001 17.5 13.2001 17.5Z" fill="#2C83F5"/>
<path d="M21.8998 14.3H26.8998C27.1998 14.3 27.4998 14 27.4998 13.7C27.4998 13.4 27.1998 13.1 26.8998 13.1H21.8998C21.5998 13.1 21.2998 13.4 21.2998 13.7C21.2998 14.1 21.5998 14.3 21.8998 14.3Z" fill="#2C83F5"/>
<path d="M21.8998 11.2H26.8998C27.1998 11.2 27.4998 10.9 27.4998 10.6C27.4998 10.3 27.2998 10 26.8998 10H21.8998C21.5998 10 21.2998 10.3 21.2998 10.6C21.2998 10.9 21.5998 11.2 21.8998 11.2Z" fill="#2C83F5"/>
<path d="M20.9001 33.2C21.6001 33.2 22.2001 33 22.7001 32.5C22.8001 32.4 22.9001 32.3 23.0001 32.2C23.2001 32 23.2001 31.6 22.9001 31.4C22.7001 31.2 22.3001 31.2 22.1001 31.5C22.1001 31.6 22.0001 31.6 21.9001 31.7C21.6001 31.9 21.3001 32.1 20.9001 32.1C19.8001 32.1 18.9001 31.2 18.9001 30.1C18.9001 29 19.8001 28.1 20.9001 28.1C21.3001 28.1 21.7001 28.2 22.0001 28.4C22.3001 28.6 22.6001 28.5 22.8001 28.2C23.0001 27.9 22.9001 27.6 22.6001 27.4C22.1001 27 21.5001 26.9 20.8001 26.9C19.0001 26.9 17.6001 28.3 17.6001 30.1C17.7001 31.8 19.1001 33.2 20.9001 33.2Z" fill="#2C83F5"/>
<path d="M24.0002 33.1C24.1002 33.2 24.2002 33.2 24.3002 33.2C24.5002 33.2 24.7002 33.1 24.8002 33L26.2002 31L27.6002 33C27.7002 33.2 27.9002 33.2 28.1002 33.2C28.2002 33.2 28.3002 33.2 28.4002 33.1C28.7002 32.9 28.7002 32.5 28.5002 32.3L26.8002 29.9L28.2002 27.9C28.4002 27.6 28.3002 27.3 28.1002 27.1C27.8002 26.9 27.5002 27 27.3002 27.2L26.1002 28.9L24.9002 27.2C24.7002 26.9 24.3002 26.9 24.1002 27.1C23.8002 27.3 23.8002 27.7 24.0002 27.9L25.4002 29.9L23.7002 32.3C23.7002 32.6 23.8002 32.9 24.0002 33.1Z" fill="#2C83F5"/>
<path d="M13.4998 33.2001C15.2998 33.2001 16.6998 31.8 16.6998 30C16.6998 28.2 15.2998 26.8 13.4998 26.8C11.6998 26.8 10.2998 28.2 10.2998 30C10.2998 31.8 11.6998 33.2001 13.4998 33.2001ZM13.4998 28C14.5998 28 15.4998 28.9 15.4998 30C15.4998 31.1 14.5998 32 13.4998 32C12.3998 32 11.4998 31.1 11.4998 30C11.3998 28.9 12.2998 28 13.4998 28Z" fill="#2C83F5"/>
<path d="M13.8001 14.3H18.2001C18.9001 14.3 19.4001 13.8 19.4001 13.1V11.2C19.4001 10.5 18.9001 10 18.2001 10H13.8001C13.1001 10 12.6001 10.5 12.6001 11.2V13.1C12.6001 13.8 13.1001 14.3 13.8001 14.3ZM13.7001 11.2C13.7001 11.2 13.8001 11.2 13.7001 11.2H18.1001V13.1H13.8001V11.2H13.7001Z" fill="#2C83F5"/>
<path d="M4.40039 32.6C4.40039 32.8 4.50039 32.9 4.60039 33C4.70039 33.1 4.90039 33.2 5.00039 33.2C5.00039 33.2 6.10039 33.2 6.50039 33.2C8.00039 33.2 9.10039 31.9 9.10039 30.1C9.10039 28.2 8.00039 27 6.50039 27H5.00039C4.80039 27 4.70039 27.1 4.60039 27.2C4.50039 27.3 4.40039 27.5 4.40039 27.6C4.40039 27.6 4.40039 29.5 4.40039 30.1C4.40039 30.7 4.40039 32.6 4.40039 32.6ZM6.40039 28.1C7.50039 28.1 7.90039 29.1 7.90039 30C7.90039 31.3 7.20039 31.9 6.50039 31.9C6.30039 31.9 5.90039 31.9 5.60039 31.9C5.60039 31.3 5.60039 30.4 5.60039 30C5.60039 29.6 5.60039 28.7 5.60039 28.1H6.40039Z" fill="#2C83F5"/>
</svg>
