<svg width="70" height="70" viewBox="0 0 70 70" fill="none" xmlns="http://www.w3.org/2000/svg">
<circle cx="35" cy="35" r="35" fill="#3497A4"/>
<path fill-rule="evenodd" clip-rule="evenodd" d="M23.7112 21.2232C24.4866 21.4578 25.7189 22.5676 26.493 23.0683C27.6317 23.8045 28.4103 23.0729 29.4952 22.5626C30.7797 21.9581 32.0847 22.1359 32.3843 20.8224L32.8499 17.9266C33.1127 16.9817 32.5608 17.2134 36.9146 17.2528C37.7234 22.9221 37.4314 21.1907 40.3734 22.5107C43.4886 23.9083 41.9087 23.8801 46.111 21.1466C46.663 21.4532 48.5376 23.3298 48.8635 23.8883C46.3781 28.019 45.975 26.3054 47.4952 29.6197C48.0823 30.8993 47.9226 32.11 49.1438 32.4244L52.6332 33.2172C52.6513 33.2385 53.5331 36.5551 52.1545 37.0453L50.797 37.2898C50.3213 37.3663 49.4316 37.4655 48.9851 37.6019C47.9196 37.9271 48.0392 39.1999 47.4958 40.3892C46.9304 41.6271 46.158 42.2546 47.07 43.5504C47.6404 44.3609 48.2794 45.177 48.9164 46.1702L46.1104 48.8566C45.2016 48.2935 43.8862 47.1331 43.12 46.7698C42.0693 46.2717 40.676 47.4209 39.6115 47.7918C37.4271 48.5527 37.7642 47.9515 37.3335 50.5076C36.9044 53.0547 37.4921 52.7748 34.9092 52.7827C32.4014 52.7906 33.045 52.7689 32.6173 50.1928C32.2237 47.8244 32.3219 48.4818 30.263 47.7376C28.892 47.2419 27.9832 46.1695 26.7298 46.9899C25.9124 47.5247 24.7438 48.5767 23.8604 48.9552L21.2268 46.2878C21.4762 45.585 22.5459 44.2679 23.0019 43.6184C23.8489 42.4127 23.2007 41.7996 22.6244 40.6182C22.0912 39.5255 22.0383 38.049 21.0852 37.7175C20.1742 37.4005 18.3278 37.2421 17.242 37.0434L17.2804 33.1321C22.8031 32.1902 21.1289 32.8929 22.562 29.4866C23.1882 27.9983 23.9359 27.858 22.8077 26.3888C22.3254 25.7607 21.3083 24.4606 21.0685 23.8647L23.7109 21.2229L23.7112 21.2232ZM15 32.6817V37.2944C16.3378 39.6776 15.9041 38.9341 19.8818 39.7853L21.0366 42.6341C20.4406 43.1374 18.7434 45.2145 19.0167 46.7244C19.2556 48.0435 20.8549 49.0666 21.9164 50.2142C23.8571 52.3119 25.5625 50.4011 27.2805 49.3021C27.7227 49.0193 27.6054 49.015 28.1652 49.269C28.6002 49.4661 28.823 49.5788 29.3049 49.7568C31.1921 50.454 30.147 50.6275 30.8691 53.1651C31.219 54.3955 31.7414 54.3998 32.6353 54.9993H37.3561C40.4608 53.2223 38.6453 51.6463 39.7298 50.2651L39.9453 50.0979C40.0948 50.0078 40.1408 49.9763 40.3057 49.9017C42.9015 48.7259 42.3236 48.9473 44.3438 50.3692C46.7024 52.029 47.9374 50.4583 49.1743 49.174C50.57 47.7252 52.0027 46.6735 50.4524 44.4381C48.7272 41.9507 48.8635 42.9199 49.8488 40.4299C50.4363 38.9453 51.2839 39.6513 53.1687 39.1286C54.3127 38.8112 54.5423 38.1584 55 37.3505V32.6353C54.4129 31.745 54.3948 31.1967 53.1704 30.8671C51.3568 30.3789 50.4606 31.0094 49.8528 29.5697L49.0459 27.6222C49.7332 26.3885 51.4452 25.0007 51.0401 23.2368C50.8042 22.2091 48.6779 20.4761 48.0435 19.8226C45.2273 16.9213 43.5977 21.5816 41.8275 20.7297C38.4081 19.0844 40.0919 20.6108 39.0606 16.8934C38.735 15.7195 38.1571 15.5592 37.3193 15H32.7096C30.282 16.3644 31.0275 16.1706 30.2133 19.8808L27.3758 21.0369C26.9549 20.5411 24.9643 19.1015 24.1784 18.9937C22.4233 18.7529 21.7173 20.0904 20.8993 20.8986C20.1308 21.6579 18.6734 22.5222 18.8702 24.2385C18.9799 25.1933 20.3788 26.8714 20.9114 27.6271C19.8854 30.1851 20.1374 30.3142 19.1679 30.5478C16.6907 31.1444 16.6075 30.3135 15.0003 32.683L15 32.6817Z" fill="white"/>
<path fill-rule="evenodd" clip-rule="evenodd" d="M28.7474 36.3323C26.9927 27.8566 39.6809 25.6317 41.2572 33.7115C42.9002 42.1339 30.4069 44.3473 28.7474 36.3323ZM33.827 26.4761C29.4968 27.1627 25.6634 31.0195 26.4716 36.2261C27.1346 40.4972 31.1188 44.3434 36.2253 43.525C40.5262 42.8357 44.3294 38.9248 43.53 33.772C42.8657 29.4878 38.9197 25.6685 33.827 26.4764V26.4761Z" fill="white"/>
</svg>
