<svg width="70" height="70" viewBox="0 0 70 70" fill="none" xmlns="http://www.w3.org/2000/svg">
<circle cx="35" cy="35" r="35" fill="#3497A4"/>
<path d="M25.2218 25.0158C25.2362 24.7306 25.4255 24.4689 25.8583 24.2572C26.1693 24.1052 27.5549 24.4188 28.4501 24.9164C28.695 25.0526 28.9108 25.2032 29.0685 25.3626C29.26 25.5562 29.374 25.7697 29.3735 25.9994V26.0006C29.372 26.2768 29.2126 26.5347 28.8355 26.7522C28.5157 26.9367 27.0807 26.6244 26.1592 26.1224C25.9054 25.9841 25.6827 25.831 25.5215 25.6693C25.3235 25.4702 25.21 25.2511 25.2218 25.0158ZM34.3913 29.411C32.8294 28.8193 30.839 28.0652 30.2941 27.6179L30.1909 27.5331L30.1851 27.3968C30.1451 26.4531 30.5285 26.1221 31.0954 26.0979C31.6003 26.0763 32.2279 26.364 32.7792 26.6168C32.9568 26.6982 33.1258 26.7757 33.2837 26.8382L33.2849 26.8394L39.3612 29.2559C39.559 29.3302 39.7875 29.414 39.9944 29.4898C41.6557 30.0984 42.0495 30.2427 41.8943 31.479L41.8724 31.6533L41.7115 31.7201C40.721 32.131 38.0881 30.963 36.5742 30.2915C36.2949 30.1675 36.0543 30.0607 35.882 29.9891C35.52 29.8386 34.9875 29.6368 34.3913 29.411ZM47.2943 31.5525L21.2536 21.2906L31.615 47.2953C32.321 46.2425 33.0568 44.9405 33.7702 43.6782C34.1261 43.0485 34.4767 42.4282 34.8041 41.8718C35.7554 40.2549 36.2615 39.4156 37.0435 39.3693C37.7918 39.325 38.608 40.0733 40.1679 41.6312L47.1068 48.6041C47.2803 48.7662 47.4411 48.8506 47.5883 48.8778C47.7959 48.9162 47.9967 48.8406 48.1763 48.7125C48.3824 48.5654 48.5626 48.35 48.7019 48.1433C48.8468 47.9284 48.9433 47.7587 48.9737 47.6924C48.6287 47.0772 46.5677 45.0871 45.4794 44.0364C45.2488 43.8136 45.0613 43.6326 44.938 43.5107C44.4101 42.9882 43.9232 42.5097 43.4765 42.0707C40.9796 39.6169 39.7137 38.3729 39.4513 37.451C39.1393 36.3552 40.0216 35.8467 41.8112 34.8158C41.9719 34.7232 42.1462 34.6239 42.5361 34.3954C42.8264 34.2252 43.224 34.0013 43.6636 33.7535C44.8828 33.0667 46.4385 32.1903 47.2943 31.5525ZM39.2101 43.4364C38.5906 42.785 37.8444 42.0004 37.3011 41.5761C36.7301 42.3231 34.9964 45.3405 34.0287 47.0247C33.7985 47.4254 33.6099 47.7536 33.4995 47.9428C33.4344 48.0542 33.3716 48.1718 33.3093 48.2887C32.9117 49.0339 32.5227 49.7627 31.3806 49.6884C30.2705 49.6162 29.9638 48.7581 29.6504 47.8808H29.6492C29.5991 47.7403 29.5488 47.5998 29.5122 47.5055L20.5681 24.8824C20.4464 24.5795 20.3065 24.2573 20.1625 23.9259C19.4383 22.2587 18.6185 20.3711 19.5255 19.4709C20.3251 18.6775 21.2773 19.0688 22.1342 19.421C22.2369 19.4632 22.3375 19.5046 22.4724 19.5561L22.4759 19.5585L45.0244 28.5368C45.3636 28.6724 45.7332 28.8054 46.108 28.9402C47.7576 29.5338 49.5077 30.1637 49.6302 31.3637C49.7468 32.5074 48.9294 32.9485 48.1525 33.3676C48.0357 33.4306 47.9197 33.4932 47.8148 33.5544L41.5552 37.2348C41.765 37.517 42.0744 37.8121 42.3369 38.0625C42.4884 38.2069 42.6254 38.3375 42.7348 38.4587C42.993 38.7446 43.2547 38.9887 43.516 39.2326C43.7188 39.4219 43.9218 39.6112 44.1334 39.8306C44.2583 39.96 44.4129 40.1256 44.5634 40.2869C44.8852 40.6316 45.1855 40.9533 45.572 41.2911C45.8381 41.5237 46.0408 41.746 46.2485 41.9737C46.4518 42.1966 46.6606 42.4254 46.9599 42.686C47.5909 43.2355 48.3436 44.0015 49.0315 44.7017C49.3246 45 49.6058 45.2862 49.8591 45.5368C50.7939 46.4616 51.0553 47.2346 50.9321 47.9394C50.8115 48.6293 50.3242 49.2075 49.7456 49.7908C48.9807 50.5621 48.3516 50.9767 47.6861 50.999C47.0172 51.0215 46.3671 50.6473 45.5684 49.8408L39.8588 44.1099C39.6695 43.9196 39.449 43.6877 39.2101 43.4364Z" fill="white"/>
</svg>
