<svg width="37" height="41" viewBox="0 0 37 41" fill="none" xmlns="http://www.w3.org/2000/svg">
<path d="M35.8 6.1L30.3 0.6C29.9 0.2 29.5 0 29 0H5.7C4.7 0 3.9 0.8 3.9 1.8V20H2.5C1.1 20 0 21.1 0 22.5V33.8C0 35.2 1.1 36.3 2.5 36.3H26.9C27.9 36.3 28.7 35.5 28.7 34.5V25.7C28.7 24.7 27.9 23.9 26.9 23.9H2.5C1.8 23.9 1.2 23.3 1.2 22.6C1.2 21.9 1.8 21.3 2.5 21.3H3.8V22C3.8 22.3 4.1 22.6 4.4 22.6C4.7 22.6 5 22.3 5 22V2C5 1.6 5.3 1.3 5.7 1.3H28.3V7C28.3 7.7 28.8 8.2 29.5 8.2H35.2V38.3C35.2 38.7 34.9 39 34.5 39H5.7C5.3 39 5 38.7 5 38.3C5 38 4.7 37.7 4.4 37.7C4.1 37.7 3.8 38 3.8 38.3C3.8 39.3 4.6 40.1 5.6 40.1H34.4C35.4 40.1 36.2 39.3 36.2 38.3V7.4C36.3 6.9 36.1 6.4 35.8 6.1ZM2.5 25H26.9C27.3 25 27.6 25.3 27.6 25.7V34.5C27.6 34.9 27.3 35.2 26.9 35.2H2.5C1.8 35.2 1.2 34.6 1.2 33.9V24.7C1.6 24.8 2.1 25 2.5 25ZM29.4 6.8V1.4L34.9 6.9L29.4 6.8C29.4 6.9 29.5 6.9 29.4 6.8Z" fill="#2C83F5"/>
<path d="M11.3002 33.1C11.3002 33.1 11.4002 33.1 11.9002 33.1C12.2002 33.1 12.6002 33.1 13.1002 33.1C13.4002 33.1 13.7002 32.8 13.7002 32.5C13.7002 32.2 13.4002 31.9 13.1002 31.9C12.7002 31.9 12.3002 31.9 11.9002 31.9V27.4C11.9002 27.1 11.6002 26.8 11.3002 26.8C11.0002 26.8 10.7002 27.1 10.7002 27.4V32.5C10.8002 32.8 11.0002 33.1 11.3002 33.1Z" fill="#2C83F5"/>
<path d="M17.3001 33.1C18.3001 33.1 19.2001 32.4 19.4001 31.5C19.5001 30.8 19.2001 29.9 18.0001 29.5C17.4001 29.3 16.8001 29 16.6001 28.9C16.4001 28.8 16.4001 28.6 16.5001 28.5C16.5001 28.4 16.6001 28.2 16.9001 28.1C17.6001 27.9 18.3001 28.4 18.3001 28.4C18.5001 28.6 18.9001 28.6 19.1001 28.3C19.3001 28.1 19.3001 27.7 19.0001 27.5C19.0001 27.5 17.8001 26.5 16.5001 26.9C15.8001 27.1 15.3001 27.6 15.2001 28.3C15.1001 28.9 15.4001 29.5 15.9001 29.8H16.0001C16.0001 29.8 16.7001 30.1 17.5001 30.4C17.7001 30.5 18.3001 30.7 18.2001 31.1C18.1001 31.4 17.8001 31.7 17.3001 31.7C16.8001 31.7 16.3001 31.5 16.0001 31.1C15.8001 30.9 15.4001 30.8 15.2001 31.1C15.0001 31.3 14.9001 31.7 15.2001 31.9C15.6001 32.8 16.4001 33.1 17.3001 33.1Z" fill="#2C83F5"/>
<path d="M4.70033 33C4.80033 33.1 4.90033 33.1 5.00033 33.1C5.20033 33.1 5.40033 33 5.50033 32.9L6.90033 30.9L8.30033 32.9C8.40033 33.1 8.60033 33.1 8.80032 33.1C8.90032 33.1 9.00033 33.1 9.10033 33C9.40033 32.8 9.40033 32.4 9.20033 32.2L7.50033 29.8L8.90033 27.8C9.10033 27.5 9.00032 27.2 8.80032 27C8.50032 26.8 8.20033 26.9 8.00032 27.1L6.80033 28.8L5.60033 27.1C5.60033 26.9 5.20033 26.8 5.00033 27C4.70033 27.2 4.70033 27.6 4.90033 27.8L6.30033 29.8L4.60033 32.2C4.40033 32.5 4.40033 32.8 4.70033 33Z" fill="#2C83F5"/>
<path d="M20.8 33C20.9 33.1 21 33.1 21.1 33.1C21.3 33.1 21.5 33 21.6 32.9L23 30.9L24.4 32.9C24.5 33.1 24.7 33.1 24.9 33.1C25 33.1 25.1 33.1 25.2 33C25.5 32.8 25.5 32.4 25.3 32.2L23.6 29.8L25 27.8C25.2 27.5 25.1 27.2 24.9 27C24.6 26.8 24.3 26.9 24.1 27.1L22.9 28.8L21.7 27.1C21.5 26.8 21.1 26.8 20.9 27C20.6 27.2 20.6 27.6 20.8 27.8L22.2 29.8L20.5 32.2C20.5 32.5 20.6 32.8 20.8 33Z" fill="#2C83F5"/>
<path d="M28.2 11.2C28.2 10.5 27.7 10 27 10H13.2C12.5 10 12 10.5 12 11.2V19.3C12 20 12.5 20.5 13.2 20.5H27C27.7 20.5 28.2 20 28.2 19.3V11.2ZM18.2 16.3V14.3H22V16.3H18.2ZM22 17.5V19.5H18.2V17.5H22ZM13.2 14.3H17V16.3H13.2V14.3ZM18.2 13.2V11.2H22V13.2H18.2ZM23.2 14.3H27V16.3H23.2V14.3ZM27 11.2V13.1H23.2V11.1L27 11.2ZM13.2 11.2H17V13.2H13.2V11.2ZM13.2 19.4V17.5H17V19.5L13.2 19.4ZM27 19.4H23.2V17.4H27V19.4Z" fill="#2C83F5"/>
</svg>
