<svg width="37" height="41" viewBox="0 0 37 41" fill="none" xmlns="http://www.w3.org/2000/svg">
<path d="M35.7 6.1L30.2 0.6C29.8 0.2 29.4 0 28.9 0H5.6C4.6 0 3.8 0.8 3.8 1.8V20H2.5C1.1 20 0 21.1 0 22.5V33.8C0 35.2 1.1 36.3 2.5 36.3H21.9C22.9 36.3 23.7 35.5 23.7 34.5V25.7C23.7 24.7 22.9 23.9 21.9 23.9H2.5C1.8 23.9 1.2 23.3 1.2 22.6C1.2 21.9 1.8 21.3 2.5 21.3H3.8V22C3.8 22.3 4.1 22.6 4.4 22.6C4.7 22.6 5 22.3 5 22V2C5 1.6 5.3 1.3 5.7 1.3H28.3V7C28.3 7.7 28.8 8.2 29.5 8.2H35.2V38.3C35.2 38.7 34.9 39 34.5 39H5.6C5.2 39 4.9 38.7 4.9 38.3C4.9 38 4.6 37.7 4.3 37.7C4 37.7 3.7 38 3.7 38.3C3.7 39.3 4.5 40.1 5.5 40.1H34.3C35.3 40.1 36.1 39.3 36.1 38.3V7.4C36.2 6.9 36.1 6.4 35.7 6.1ZM2.5 25H21.9C22.3 25 22.6 25.3 22.6 25.7V34.5C22.6 34.9 22.3 35.2 21.9 35.2H2.5C1.8 35.2 1.2 34.6 1.2 33.9V24.7C1.5 24.8 2 25 2.5 25ZM29.4 6.8V1.4L34.9 6.9L29.4 6.8C29.4 6.9 29.4 6.9 29.4 6.8Z" fill="#2C83F5"/>
<path d="M16.6 33.1C16.9 33.1 17.2 32.8 17.2 32.5V30.6H18.5C18.8 30.6 19.1 30.3 19.1 30C19.1 29.7 18.8 29.4 18.5 29.4H17.2V28.1H18.6C18.9 28.1 19.2 27.8 19.2 27.5C19.2 27.2 18.9 26.9 18.6 26.9H16.6C16.3 26.9 16 27.2 16 27.5V32.5C16 32.8 16.3 33.1 16.6 33.1Z" fill="#2C83F5"/>
<path d="M10.4002 32.9C10.5002 33 10.7002 33.1 10.8002 33.1C10.8002 33.1 11.8002 33.1 12.2002 33.1C13.6002 33.1 14.7002 31.8 14.7002 30.1C14.7002 28.3 13.7002 27.1 12.2002 27.1H10.8002C10.6002 27.1 10.5002 27.2 10.4002 27.3C10.3002 27.4 10.2002 27.6 10.2002 27.7V32.5V32.6C10.3002 32.6 10.3002 32.8 10.4002 32.9ZM12.2002 28.2C13.2002 28.2 13.6002 29.2 13.6002 30C13.6002 31.3 12.9002 31.8 12.3002 31.8C12.1002 31.8 11.8002 31.8 11.5002 31.8C11.5002 31.2 11.5002 28.7 11.5002 28.1H12.2002V28.2Z" fill="#2C83F5"/>
<path d="M5.6 33.1C5.9 33.1 6.2 32.8 6.2 32.5V30.9C6.5 30.9 6.8 30.9 7 30.9C8.1 30.9 9 30 9 28.9C9 27.8 8.1 26.9 7 26.9H5.6C5.4 26.9 5.3 27 5.2 27.1C5.1 27.2 5 27.4 5 27.5V32.5C5 32.8 5.3 33.1 5.6 33.1ZM7 28.1C7.5 28.1 7.9 28.5 7.9 28.9C7.9 29.3 7.5 29.7 7 29.7C6.8 29.7 6.5 29.7 6.2 29.7C6.2 29.4 6.2 28.4 6.2 28H7V28.1Z" fill="#2C83F5"/>
<path d="M16.6001 17C15.2001 17.5 13.7001 18.1 12.9001 18.9C12.2001 19.6 12.1001 20.4 12.6001 21C12.9001 21.5 13.3001 21.7 13.8001 21.7C14.0001 21.7 14.2001 21.7 14.4001 21.6C15.1001 21.3 15.8001 20.6 16.7001 19.3C17.0001 18.9 17.2001 18.4 17.5001 17.9C17.6001 17.9 17.7001 17.8 17.8001 17.8C19.5001 17.3 21.3001 17 23.0001 16.9C24.0001 17.9 25.0001 18.6 25.9001 18.8C26.9001 19 27.6001 18.6 28.0001 17.6C28.2001 17 28.0001 16.5 27.4001 16.1C26.8001 15.8 25.8001 15.6 24.4001 15.6C24.1001 15.6 23.8001 15.6 23.5001 15.6C22.9001 14.9 22.2001 14.2 21.6001 13.3C21.1001 12.6 20.7001 12 20.3001 11.3C20.3001 11.2 20.4001 11 20.4001 10.9C20.8001 9.39995 20.9001 8.29995 20.8001 7.49995C20.6001 6.39995 19.9001 6.29995 19.6001 6.19995C18.6001 6.09995 17.9001 6.69995 17.8001 7.59995C17.7001 8.29995 17.9001 9.29995 18.5001 10.5C18.6001 10.8 18.8001 11.1 19.0001 11.4C18.9001 11.6 18.9001 11.8 18.8001 12C18.0001 13.9 17.3001 15.6 16.6001 17ZM13.7001 20.6C13.7001 20.6 13.6001 20.6 13.5001 20.4C13.4001 20.2 13.4001 20.1 13.5001 20C13.7001 19.6 14.4001 19.1 15.7001 18.6C14.7001 20 14.1001 20.5 13.7001 20.6ZM26.7001 17.3C26.5001 17.8 26.3001 17.8 26.0001 17.8C25.6001 17.7 25.1001 17.4 24.5001 16.9C26.1001 16.9 26.6001 17.2 26.7001 17.3ZM18.8001 7.89995C18.8001 7.69995 18.9001 7.49995 19.3001 7.49995H19.4001C19.5001 7.69995 19.6001 8.39995 19.3001 9.79995C18.9001 9.09995 18.7001 8.39995 18.8001 7.89995ZM19.6001 12.9C19.9001 13.3 20.1001 13.7 20.4001 14.1C20.8001 14.7 21.3001 15.3 21.8001 15.8C21.2001 15.9 20.6001 16 20.0001 16.1C19.6001 16.2 18.9001 16.3 18.1001 16.5C18.3001 16.1 18.5001 15.7 18.6001 15.3C19.0001 14.6 19.3001 13.7 19.6001 12.9Z" fill="#2C83F5"/>
</svg>
