<svg width="70" height="70" viewBox="0 0 70 70" fill="none" xmlns="http://www.w3.org/2000/svg">
<circle cx="35" cy="35" r="35" fill="#3497A4"/>
<path fill-rule="evenodd" clip-rule="evenodd" d="M28.5725 25.3682C29.8624 23.3834 31.7337 22.074 34.3567 22.0518C36.402 22.0345 46.4187 24.6596 49.5325 25.2077L53.8006 40.452C52.842 40.4834 52.2654 40.259 51.6881 39.8343C46.3754 35.9264 40.9014 31.649 35.5557 27.6355C34.5948 26.9142 33.0951 25.5135 32.2977 25.6493C31.6368 25.7617 31.2161 26.5672 31.6292 27.2319C31.7876 27.4866 32.6166 28.0019 33.0518 28.402C32.5656 29.3956 31.2596 30.7815 30.027 31.3319C28.0342 32.2219 26.6842 31.6692 25.1668 31.0189L28.5725 25.3682ZM34.7718 29.7393C35.1219 29.8519 40.4494 33.9506 40.8606 34.2659C41.743 34.9428 49.1122 40.41 49.9268 41.1518C50.9785 42.1095 50.3366 44.1339 48.6433 44.0016C47.9333 43.9462 47.4073 43.3865 46.945 43.0526C46.4251 42.6774 45.947 42.297 45.4281 41.913C44.9603 41.5667 39.6097 37.4342 39.275 37.3116C38.4186 36.9978 37.6795 37.6545 37.835 38.488C37.9369 39.0339 38.7866 39.5015 39.1942 39.8247L45.2553 44.403C45.7715 44.7929 46.347 45.1429 46.5249 45.7797C46.9468 47.2884 45.2533 48.5387 43.7654 47.4728C43.2039 47.0707 42.7886 46.729 42.2598 46.3184C41.2571 45.5397 40.2576 44.8308 39.227 44.0321C38.1656 43.2097 37.2086 42.4671 36.1469 41.6918C35.7395 41.3942 35.0413 40.6804 34.361 40.7705C33.6684 40.8621 33.115 41.7528 33.7161 42.4487L36.7294 44.7581C37.3036 45.1972 40.9274 47.8742 41.2143 48.2452C41.6797 48.8469 41.6498 49.6886 41.1503 50.2724C39.9778 51.6426 38.5258 50.3502 37.6898 49.673L31.6315 45.0934C31.2187 44.7788 30.6122 44.1249 29.888 44.3206C29.1632 44.5164 28.8828 45.5055 29.484 46.0806L32.5055 48.3746C33.5158 49.1381 35.0857 50.04 35.2241 51.006C35.4233 52.3952 33.9078 53.6369 32.3052 52.4026C31.3241 51.647 30.3229 50.8872 29.2732 50.1168C28.2325 49.353 27.2877 48.6127 26.2462 47.8264C25.2507 47.0746 24.2328 46.3129 23.2195 45.536L17.0737 40.9581L21.3756 25.4999L26.3034 24.925L23.6109 29.4157C22.8237 30.7235 21.5941 31.8395 25.0307 33.2727C26.9673 34.0803 29.1123 34.0171 30.9873 33.1783C33.4284 32.0863 33.644 30.7974 34.7719 29.7392L34.7718 29.7393ZM15.3444 22.6398C16.1903 22.6421 18.6431 23.4995 19.6402 23.6925C19.4624 24.8284 14.7553 41.2872 14.6189 41.4815L10.3586 40.3005L15.3445 22.6398H15.3444ZM51.3529 23.6916C52.3711 23.4982 54.7783 22.6434 55.6675 22.6329L60.608 40.3476L56.3691 41.4618C55.9537 40.7625 55.3438 38.057 55.0602 37.0426L52.5721 28.1796C52.2057 26.9133 51.5298 24.9421 51.3529 23.6915V23.6916ZM22.1647 23.2962C21.9553 23.0071 22.0884 22.5216 21.6196 22.1741C21.2977 21.9358 18.4424 21.2461 17.9491 21.1181C15.6662 20.5255 13.9753 19.6188 13.5255 21.1755C12.5946 24.3975 11.7204 27.6326 10.8155 30.8408C9.90214 34.0794 8.92407 37.3209 8.06829 40.5759C7.64463 42.1872 9.22817 42.1956 11.8651 42.8935C12.7214 43.1202 13.5445 43.3426 14.3799 43.5683C15.8199 43.9575 15.7903 43.9002 16.4811 43.1074C17.4059 43.6882 18.1783 44.3793 19.0819 45.0376C20.524 46.088 31.02 54.1695 31.7548 54.5618C33.6882 55.5939 36.5242 54.8214 37.2909 52.0516C38.4961 52.7325 39.5005 53.3631 41.3209 52.658C43.0597 51.9846 43.2715 50.6997 43.6586 49.8024C45.3808 49.9875 46.0801 50.0493 47.3118 49.1254C48.2728 48.4044 48.5355 47.5447 48.7475 46.0925C51.0964 45.9981 52.2775 44.626 52.6206 42.5092L54.4188 42.4881C54.5718 43.4916 54.9823 44 56.1219 43.704L61.1516 42.3513C62.0272 42.1101 63.0222 42.0832 62.9997 41.0206C62.9902 40.5735 60.6251 32.3832 60.2893 31.2369C59.3456 28.0166 58.4085 24.6641 57.5293 21.4164C57.253 20.3959 56.8567 20.0793 55.717 20.3932L50.6941 21.7466C49.9446 21.9412 49.433 21.9258 49.0961 22.5094L48.8255 22.9368C46.5841 22.4505 44.3421 21.964 42.1039 21.4518C37.2181 20.3338 33.1665 18.6521 28.8977 21.8572C27.5405 22.8762 28.746 22.5616 25.8038 22.8932C24.5975 23.0292 23.3836 23.1652 22.1647 23.2961V23.2962Z" fill="white"/>
</svg>
